<svg xmlns="http://www.w3.org/2000/svg" xmlns:xlink="http://www.w3.org/1999/xlink" width="3000" zoomAndPan="magnify" viewBox="0 0 2250 2250.000011" height="3000" preserveAspectRatio="xMidYMid meet" version="1.0"><defs><g/><clipPath id="9cbd7231d7"><path d="M 0.5 0 L 2249.5 0 L 2249.5 2249 L 0.5 2249 Z M 0.5 0 " clip-rule="nonzero"/></clipPath></defs><g clip-path="url(#9cbd7231d7)"><path fill="#ffffff" d="M 0.5 0 L 2249.5 0 L 2249.5 2249 L 0.5 2249 Z M 0.5 0 " fill-opacity="1" fill-rule="nonzero"/><path fill="#03989e" d="M 0.5 0 L 2249.5 0 L 2249.5 2249 L 0.5 2249 Z M 0.5 0 " fill-opacity="1" fill-rule="nonzero"/></g><g fill="#ffffff" fill-opacity="1"><g transform="translate(452.989323, 912.802442)"><g><path d="M 285.234375 -498.796875 C 320.234375 -498.796875 354.40625 -492.054688 387.75 -478.578125 C 421.101562 -465.097656 449.84375 -446.296875 473.96875 -422.171875 L 425.015625 -361.15625 C 407.035156 -380.550781 385.742188 -395.921875 361.140625 -407.265625 C 336.546875 -418.617188 311.71875 -424.296875 286.65625 -424.296875 C 236.988281 -424.296875 195.003906 -407.382812 160.703125 -373.5625 C 126.410156 -339.75 109.265625 -298.476562 109.265625 -249.75 C 109.265625 -200.5625 126.410156 -159.054688 160.703125 -125.234375 C 195.003906 -91.410156 236.988281 -74.5 286.65625 -74.5 C 338.207031 -74.5 384.328125 -94.128906 425.015625 -133.390625 L 474.671875 -78.046875 C 449.128906 -52.972656 419.328125 -33.101562 385.265625 -18.4375 C 351.210938 -3.78125 316.921875 3.546875 282.390625 3.546875 C 209.546875 3.546875 148.289062 -20.691406 98.625 -69.171875 C 48.957031 -117.660156 24.125 -177.617188 24.125 -249.046875 C 24.125 -319.523438 49.3125 -378.769531 99.6875 -426.78125 C 150.0625 -474.789062 211.910156 -498.796875 285.234375 -498.796875 Z M 285.234375 -498.796875 "/></g></g></g><g fill="#ffffff" fill-opacity="1"><g transform="translate(1386.018765, 912.802442)"><g><path d="M 404.4375 -421.46875 L 246.921875 -421.46875 L 246.921875 0 L 163.1875 0 L 163.1875 -421.46875 L 6.390625 -421.46875 L 6.390625 -496.671875 L 404.4375 -496.671875 Z M 404.4375 -421.46875 "/></g></g></g><g fill="#ffffff" fill-opacity="1"><g transform="translate(413.596696, 1903.932966)"><g><path d="M 286.65625 0 L 200.09375 0 L 2.125 -496.671875 L 92.234375 -496.671875 L 245.5 -92.953125 L 400.171875 -496.671875 L 487.453125 -496.671875 Z M 286.65625 0 "/></g></g></g><g fill="#ffffff" fill-opacity="1"><g transform="translate(1341.659563, 1903.932966)"><g><path d="M 285.234375 -498.796875 C 320.234375 -498.796875 354.40625 -492.054688 387.75 -478.578125 C 421.101562 -465.097656 449.84375 -446.296875 473.96875 -422.171875 L 425.015625 -361.15625 C 407.035156 -380.550781 385.742188 -395.921875 361.140625 -407.265625 C 336.546875 -418.617188 311.71875 -424.296875 286.65625 -424.296875 C 236.988281 -424.296875 195.003906 -407.382812 160.703125 -373.5625 C 126.410156 -339.75 109.265625 -298.476562 109.265625 -249.75 C 109.265625 -200.5625 126.410156 -159.054688 160.703125 -125.234375 C 195.003906 -91.410156 236.988281 -74.5 286.65625 -74.5 C 338.207031 -74.5 384.328125 -94.128906 425.015625 -133.390625 L 474.671875 -78.046875 C 449.128906 -52.972656 419.328125 -33.101562 385.265625 -18.4375 C 351.210938 -3.78125 316.921875 3.546875 282.390625 3.546875 C 209.546875 3.546875 148.289062 -20.691406 98.625 -69.171875 C 48.957031 -117.660156 24.125 -177.617188 24.125 -249.046875 C 24.125 -319.523438 49.3125 -378.769531 99.6875 -426.78125 C 150.0625 -474.789062 211.910156 -498.796875 285.234375 -498.796875 Z M 285.234375 -498.796875 "/></g></g></g></svg>